HIERARCHY
ROOT hip
{
	OFFSET 0.000000 0.000000 0.000000 
	CHANNELS 6 Xposition Yposition Zposition Xrotation Zrotation Yrotation
	JOINT abdomen
	{
		OFFSET 0.000000 3.402643 0.000000 
		CHANNELS 3 Xrotation Zrotation Yrotation
		JOINT chest
		{
			OFFSET 0.000000 8.438565 -0.680529 
			CHANNELS 3 Xrotation Zrotation Yrotation
			JOINT neck
			{
				OFFSET 0.000000 10.207942 -0.272212 
				CHANNELS 3 Xrotation Zrotation Yrotation
				JOINT head
				{
					OFFSET 0.000000 3.130431 0.000000 
					CHANNELS 3 Xrotation Zrotation Yrotation
					End Site
					{
						OFFSET 0.000000 3.130435 0.000000 
					}
				}
			}
			JOINT lCollar
			{
				OFFSET 3.470700 6.669187 -0.816635 
				CHANNELS 3 Yrotation Zrotation Xrotation
				JOINT lShldr
				{
					OFFSET 3.198488 0.000000 0.000000 
					CHANNELS 3 Zrotation Yrotation Xrotation
					JOINT lForeArm
					{
						OFFSET 10.139888 0.000000 0.000000 
						CHANNELS 3 Yrotation Zrotation Xrotation
						JOINT lHand
						{
							OFFSET 8.370511 0.000000 0.000000 
							CHANNELS 3 Zrotation Yrotation Xrotation
							End Site
							{
								OFFSET 4.083176 0.000000 0.000000 
							}
						}
					}
				}
			}
			JOINT rCollar
			{
				OFFSET -3.470700 6.669187 -0.816635 
				CHANNELS 3 Yrotation Zrotation Xrotation
				JOINT rShldr
				{
					OFFSET -3.198488 0.000000 0.000000 
					CHANNELS 3 Zrotation Yrotation Xrotation
					JOINT rForeArm
					{
						OFFSET -10.139888 0.000000 0.000000 
						CHANNELS 3 Yrotation Zrotation Xrotation
						JOINT rHand
						{
							OFFSET -8.370511 0.000000 0.000000 
							CHANNELS 3 Zrotation Yrotation Xrotation
							End Site
							{
								OFFSET -4.083176 0.000000 0.000000 
							}
						}
					}
				}
			}
		}
	}
	JOINT lThigh
	{
		OFFSET 5.308129 -1.633274 1.361059 
		CHANNELS 3 Xrotation Zrotation Yrotation
		JOINT lShin
		{
			OFFSET -2.041588 -20.007561 0.000000 
			CHANNELS 3 Xrotation Zrotation Yrotation
			JOINT lFoot
			{
				OFFSET 0.000000 -19.190928 -1.224953 
				CHANNELS 3 Xrotation Yrotation Zrotation
				End Site
				{
					OFFSET 0.000000 -2.449906 4.627600 
				}
			}
		}
	}
	JOINT rThigh
	{
		OFFSET -5.308129 -1.633274 1.361059 
		CHANNELS 3 Xrotation Zrotation Yrotation
		JOINT rShin
		{
			OFFSET 2.041588 -20.007561 0.000000 
			CHANNELS 3 Xrotation Zrotation Yrotation
			JOINT rFoot
			{
				OFFSET 0.000000 -19.190928 -1.224953 
				CHANNELS 3 Xrotation Yrotation Zrotation
				End Site
				{
					OFFSET 0.000000 -2.449906 4.627600 
				}
			}
		}
	}
}
MOTION
Frames: 10
Frame Time: 0.016667
-2.417900 44.254890 1.428728 0.645085 -2.372900 -1.423580 -22.224600 0.187343 0.777617 18.320200 -0.692831 0.398149 18.111300 2.725340 -1.954350 12.604100 5.110090 -0.574767 2.000000 -2.000000 0.000000 86.522202 168.992996 -7.897210 35.801201 -0.325733 0.080034 0.044791 0.007135 -134.373001 -2.000000 2.000000 0.000000 -87.757896 -162.330002 -6.685100 -40.224998 0.319234 0.088294 -0.055846 -0.011746 -129.216995 -6.932784 2.820757 -8.517264 24.873249 3.662874 1.681489 -22.813231 10.232682 4.563020 4.340227 1.562116 4.574911 3.582360 -4.217034 -0.124580 -19.933767 -12.127474 -4.559318 
-2.433280 44.263508 1.392971 0.752588 -2.353310 -1.242220 -22.293400 0.162135 0.682579 18.212799 -0.624477 0.357590 18.139500 2.659310 -1.972360 12.603700 5.081120 -0.579122 2.000000 -2.000000 0.000000 86.522202 169.003006 -7.965550 35.801201 -0.325733 0.080034 0.044806 0.007462 -134.255997 -2.000000 2.000000 0.000000 -87.787201 -162.369003 -6.626410 -40.176201 0.319309 0.088205 -0.055850 -0.011773 -129.207001 -7.103939 2.890385 -8.401292 24.823845 3.660415 1.670926 -22.612825 10.002487 4.438696 4.230951 1.590830 4.391347 3.583057 -4.215950 -0.114731 -19.930044 -12.107546 -4.568009 
-2.451849 44.274559 1.348504 0.899190 -2.343460 -1.033230 -22.381701 0.158417 0.589253 18.095600 -0.536614 0.306265 18.159500 2.648670 -1.982980 12.623100 5.071160 -0.578847 2.000000 -2.000000 0.000000 86.522202 169.013000 -7.936230 35.810902 -0.325719 0.080053 0.044807 0.007490 -134.246002 -2.000000 2.000000 0.000000 -87.777397 -162.320999 -6.685130 -40.234798 0.319219 0.088311 -0.055879 -0.011989 -129.128998 -7.361839 2.995150 -8.134004 24.746283 3.647418 1.659689 -22.266367 9.684617 4.268456 3.872585 1.631495 4.176921 3.601252 -4.213778 -0.124558 -19.776640 -12.065769 -4.557508 
-2.470430 44.285625 1.304035 1.045790 -2.333600 -0.833965 -22.469900 0.142211 0.490431 17.978399 -0.448764 0.254581 18.180201 2.646640 -2.000280 12.632800 5.061360 -0.589206 2.000000 -2.000000 0.000000 86.531998 169.013000 -7.906930 35.820702 -0.325706 0.080072 0.044810 0.007544 -134.225998 -2.000000 2.000000 0.000000 -87.767601 -162.272003 -6.734070 -40.303101 0.319113 0.088436 -0.055913 -0.012233 -129.041000 -7.568403 3.098191 -7.870347 24.676559 3.649122 1.650220 -21.945654 9.359497 4.086917 3.724378 1.670853 3.971156 3.597424 -4.217043 -0.124890 -19.804890 -12.071683 -4.576200 
-2.440649 44.270710 1.350121 0.791695 -2.372820 -1.165970 -22.342400 0.188007 0.640372 18.134701 -0.556143 0.336022 18.190399 2.636340 -2.011980 12.642600 5.061200 -0.588345 2.000000 -2.000000 0.000000 86.522202 169.013000 -7.867870 35.840199 -0.325678 0.080109 0.044807 0.007490 -134.246002 -2.000000 2.000000 0.000000 -87.787102 -162.281998 -6.743810 -40.293400 0.319128 0.088418 -0.055920 -0.012287 -129.020996 -7.217563 2.979248 -8.200297 24.825602 3.647630 1.668890 -22.401381 9.872208 4.354639 3.978880 1.629037 4.303943 3.603678 -4.211208 -0.115278 -19.782476 -12.078493 -4.553457 
-2.410857 44.255791 1.396205 0.537586 -2.412000 -1.507390 -22.205000 0.242823 0.786572 18.300600 -0.663548 0.416763 18.200600 2.626050 -2.023680 12.652400 5.061050 -0.597249 2.000000 -2.000000 0.000000 86.522202 169.013000 -7.838570 35.869499 -0.325637 0.080166 0.044805 0.007435 -134.266006 -2.000000 2.000000 0.000000 -87.806702 -162.291000 -6.763320 -40.293400 0.319128 0.088418 -0.055928 -0.012342 -129.001999 -6.847720 2.848070 -8.502536 24.941025 3.669477 1.672021 -22.825373 10.359009 4.598755 4.419732 1.577137 4.671710 3.587446 -4.225038 -0.115243 -19.906277 -12.124262 -4.531012 
-2.411711 44.256184 1.383072 0.498481 -2.392490 -1.505570 -22.205099 0.239395 0.777428 18.281099 -0.663539 0.407224 18.191401 2.663510 -2.012560 12.652600 5.070710 -0.595789 2.000000 -2.000000 0.000000 86.531898 169.003006 -7.770240 35.908600 -0.325583 0.080242 0.044795 0.007216 -134.343994 -2.000000 2.000000 0.000000 -87.835999 -162.320999 -6.694890 -40.273800 0.319159 0.088383 -0.055898 -0.012125 -129.080002 -6.812131 2.814917 -8.543279 24.928694 3.681549 1.655185 -22.869461 10.398060 4.639182 4.457249 1.560836 4.673488 3.587299 -4.225164 -0.115256 -19.888380 -12.152084 -4.544919 
-2.412576 44.256691 1.369938 0.459378 -2.372970 -1.513550 -22.195299 0.230350 0.781108 18.271299 -0.663534 0.407337 18.181601 2.701640 -1.991740 12.652900 5.090020 -0.583103 2.000000 -2.000000 0.000000 86.541702 168.983002 -7.701920 35.957401 -0.325514 0.080336 0.044786 0.007025 -134.412003 -2.000000 2.000000 0.000000 -87.875099 -162.358994 -6.616670 -40.264099 0.319174 0.088365 -0.055872 -0.011935 -129.147995 -6.792608 2.771543 -8.602956 24.927814 3.693672 1.677279 -22.887753 10.435475 4.642662 4.468611 1.530863 4.671463 3.593760 -4.219673 -0.115416 -19.872782 -12.184016 -4.538816 
-2.432864 44.267361 1.322157 0.615737 -2.314320 -1.265470 -22.293400 0.192671 0.680613 18.124901 -0.585410 0.356891 18.122101 2.676590 -1.997620 12.623300 5.080820 -0.587158 2.000000 -2.000000 0.000000 86.551399 169.003006 -7.692110 35.928101 -0.325555 0.080279 0.044788 0.007053 -134.401993 -2.000000 2.000000 0.000000 -87.884804 -162.350006 -6.567870 -40.283600 0.319143 0.088400 -0.055842 -0.011718 -129.225998 -7.035774 2.839957 -8.365273 24.801945 3.673137 1.664071 -22.549948 10.102388 4.461209 4.298306 1.543401 4.431980 3.584661 -4.227401 -0.115483 -19.876440 -12.144937 -4.561924 
-2.453141 44.278172 1.274380 0.772088 -2.265420 -1.017210 -22.401300 0.154996 0.580128 17.978399 -0.507298 0.306045 18.072300 2.651160 -2.002360 12.593700 5.071610 -0.591202 2.000000 -2.000000 0.000000 86.561203 169.022003 -7.672540 35.908600 -0.325583 0.080242 0.044789 0.007080 -134.393005 -2.000000 2.000000 0.000000 -87.894501 -162.339996 -6.528830 -40.312901 0.319098 0.088454 -0.055817 -0.011529 -129.294998 -7.277050 2.918345 -8.147889 24.744677 3.661953 1.671855 -22.249081 9.761254 4.268993 4.122696 1.545411 4.171251 3.576134 -4.222348 -0.125117 -19.879480 -12.118443 -4.556973 
